<?xml version="1.0" ?><svg id="Layer_3" style="enable-background:new 0 0 64 64;" version="1.1" viewBox="0 0 64 64" xml:space="preserve" xmlns="http://www.w3.org/2000/svg" xmlns:xlink="http://www.w3.org/1999/xlink"><g><g><rect height="44" style="fill:#999999;" width="4" x="8" y="15"/></g><g><rect height="44" style="fill:#B3B3B3;" width="2" x="8" y="15"/></g><g><g><rect height="4" style="fill:#666666;" width="2" x="31" y="48"/></g></g><g><path d="M30.293,48.293l-0.232-0.232C29.382,47.382,29,46.46,29,45.5v0c0-0.96,0.382-1.882,1.061-2.561    L32,41l1.939,1.939C34.618,43.618,35,44.54,35,45.5v0c0,0.96-0.382,1.882-1.061,2.561l-0.232,0.232C33.254,48.746,32.64,49,32,49    h0C31.36,49,30.746,48.746,30.293,48.293z" style="fill:#BC842C;"/></g><g><path d="M31.939,42.939L31,42l-0.939,0.939C29.382,43.618,29,44.54,29,45.5s0.382,1.882,1.061,2.561    l0.232,0.232c0.206,0.206,0.448,0.364,0.707,0.483c0.26-0.119,0.501-0.277,0.707-0.483l0.232-0.232    C32.618,47.382,33,46.46,33,45.5S32.618,43.618,31.939,42.939z" style="fill:#FBB03B;"/></g><g><circle cx="59" cy="19" r="3" style="fill:#999999;"/></g><g><ellipse cx="58" cy="19" rx="2" ry="2.816" style="fill:#B3B3B3;"/></g><g><circle cx="53" cy="6" r="4" style="fill:#999999;"/></g><g><ellipse cx="52" cy="6" rx="3" ry="3.859" style="fill:#B3B3B3;"/></g><g><path d="M52,36h-1c-0.552,0-1-0.448-1-1v-2c0-0.552,0.448-1,1-1h6c0.552,0,1,0.448,1,1v2    c0,0.552-0.448,1-1,1h-1H52z" style="fill:#754C24;"/></g><g><path d="M56,35v-2c0-0.552-0.448-1-1-1h-4c-0.552,0-1,0.448-1,1v2c0,0.552,0.448,1,1,1h1h2h1    C55.552,36,56,35.552,56,35z" style="fill:#8C6239;"/></g><g><rect height="4" style="fill:#CCCCCC;" width="4" x="52" y="28"/></g><g><rect height="4" style="fill:#E6E6E6;" width="2" x="52" y="28"/></g><g><path d="M62,53.706V54c0,4.418-3.582,8-8,8h0c-4.418,0-8-3.582-8-8v-0.294c0-4.11,2.322-7.867,5.998-9.705    L52,44v-8h4v8l0.002,0.001C59.678,45.839,62,49.596,62,53.706z" style="fill:#CCCCCC;"/></g><g><path d="M51.998,44.001C48.322,45.839,46,49.596,46,53.706V54c0,4.079,3.055,7.438,7,7.931    c3.945-0.493,7-3.852,7-7.931v-0.294c0-4.11-2.322-7.867-5.998-9.705L54,44v-8h-2v8L51.998,44.001z" style="fill:#E6E6E6;"/></g><g><path d="M61.968,52.875C61.989,53.15,62,53.427,62,53.706V54c0,4.418-3.582,8-8,8h0c-4.418,0-8-3.582-8-8    v-0.294c0-0.24,0.008-0.479,0.024-0.717L46.023,53l2.228,0c0.48,0,0.94,0.191,1.279,0.53l0.94,0.94    C50.809,54.809,51.27,55,51.749,55h4.133c0.685,0,1.312-0.387,1.618-1v0c0.306-0.613,0.933-1,1.618-1L62,53L61.968,52.875z" style="fill:#006094;"/></g><g><path d="M47.47,54.47l-0.94-0.94c-0.149-0.149-0.325-0.264-0.512-0.352C46.009,53.353,46,53.529,46,53.706    V54c0,3.905,2.799,7.152,6.5,7.855C56.201,61.152,59,57.905,59,54v-0.294c0-0.23-0.012-0.458-0.026-0.685    c-0.626,0.051-1.19,0.411-1.474,0.98c-0.306,0.613-0.933,1-1.618,1h-3h-1.133h-3C48.27,55,47.809,54.809,47.47,54.47z" style="fill:#3380A9;"/></g><g><path d="M25,58v-3c0-1.657,1.343-3,3-3h8c1.657,0,3,1.343,3,3v3H25z" style="fill:#BC9B0D;"/></g><g><path d="M33,52h-5c-1.657,0-3,1.343-3,3v3h11v-3C36,53.343,34.657,52,33,52z" style="fill:#F6CD08;"/></g><g><rect height="4" style="fill:#999999;" width="14" x="25" y="2"/></g><g><rect height="4" style="fill:#B3B3B3;" width="11" x="25" y="2"/></g><g><rect height="16" style="fill:#CCCCCC;" width="10" x="27" y="6"/></g><g><rect height="16" style="fill:#E6E6E6;" width="7" x="27" y="6"/></g><g><path d="M37,22H27v9c0,2.761,2.239,5,5,5h0c2.761,0,5-2.239,5-5V22z" style="fill:#006094;"/></g><g><path d="M30.5,35.746c2.023-0.64,3.5-2.51,3.5-4.746v-9h-7v9C27,33.235,28.477,35.105,30.5,35.746z" style="fill:#3380A9;"/></g><g><rect height="6" style="fill:#754C24;" width="4" x="23" y="9"/></g><g><rect height="6" style="fill:#8C6239;" width="2" x="23" y="9"/></g><g><rect height="6" style="fill:#754C24;" width="4" x="37" y="9"/></g><g><rect height="6" style="fill:#8C6239;" width="2" x="37" y="9"/></g><g><rect height="4" style="fill:#999999;" width="4" x="41" y="10"/></g><g><rect height="4" style="fill:#B3B3B3;" width="2" x="41" y="10"/></g><g><rect height="4" style="fill:#B3B3B3;" width="10" x="13" y="10"/></g><g><rect height="4" style="fill:#999999;" width="4" x="2" y="10"/></g><g><rect height="4" style="fill:#B3B3B3;" width="2" x="2" y="10"/></g><g><rect height="4" style="fill:#999999;" width="4" x="8" y="4"/></g><g><rect height="4" style="fill:#B3B3B3;" width="2" x="8" y="4"/></g><g><path d="M6,10v4c0,1.105,0.895,2,2,2h4c1.105,0,2-0.895,2-2v-4c0-1.105-0.895-2-2-2H8C6.895,8,6,8.895,6,10    z" style="fill:#754C24;"/></g><g><path d="M11,14v-4c0-1.105-0.895-2-2-2H8c-1.105,0-2,0.895-2,2v4c0,1.105,0.895,2,2,2h1    C10.105,16,11,15.105,11,14z" style="fill:#8C6239;"/></g><g><rect height="4" style="fill:#808080;" width="38" x="3" y="58"/></g><g><rect height="4" style="fill:#999999;" width="34" x="3" y="58"/></g></g></svg>